<svg xmlns="http://www.w3.org/2000/svg" viewBox="0 0 256 256">
  <defs>
    <linearGradient id="shieldFill" x1="0" y1="0" x2="1" y2="1">
      <stop offset="0%" stop-color="#7db2ff"/>
      <stop offset="100%" stop-color="#2f6fff"/>
    </linearGradient>
    <linearGradient id="innerFill" x1="0" y1="0" x2="1" y2="1">
      <stop offset="0%" stop-color="#ffffff" stop-opacity="0.95"/>
      <stop offset="100%" stop-color="#dce9ff" stop-opacity="0.92"/>
    </linearGradient>
  </defs>
  <path d="M128 18c27 19 59 29 92 32v62c0 68-37 106-92 126C73 218 36 180 36 112V50c33-3 65-13 92-32z"
        fill="url(#shieldFill)"/>
  <path d="M128 36c-22 13-48 22-74 26v50c0 56 28 89 74 108c46-19 74-52 74-108V62c-26-4-52-13-74-26z"
        fill="#1849b8" opacity="0.28"/>
  <path d="M128 52c-18 11-39 18-60 22v38c0 47 21 74 60 92c39-18 60-45 60-92V74c-21-4-42-11-60-22z"
        fill="url(#innerFill)"/>
  <path d="M128 52v152c39-18 60-45 60-92V74c-21-4-42-11-60-22z"
        fill="#c9ddff" opacity="0.8"/>
</svg>
